<svg width="283" height="41" viewBox="0 0 283 41" fill="none" xmlns="http://www.w3.org/2000/svg">
<path d="M60.1738 32.827V13.1548H63.7756V32.827H60.1738ZM53.5703 7.54613H70.379V11.0938H53.5703V7.54613ZM112.298 26.7699L113.837 30.1562C111.736 32.1121 108.697 33.1277 105.957 33.1277C98.7163 33.1277 92.8255 27.3345 92.8255 20.1868C92.8255 13.039 98.7163 7.24512 105.957 7.24512C108.697 7.24512 111.736 8.22308 113.837 10.1796L112.298 13.5652C110.573 11.7974 108.584 10.8566 105.733 10.8566C100.592 10.8566 96.4273 15.0327 96.4273 20.1862C96.4273 25.3402 100.592 29.5163 105.733 29.5163C108.584 29.5166 110.573 28.5758 112.298 26.7699ZM138.772 7.54613V32.8268H135.17V7.54613H138.772ZM125.273 21.9926V18.3806H133.008V21.9926H125.273ZM119.562 7.54613H123.164V32.8268H119.562V7.54613Z" fill="#646464"/>
<path d="M163.933 25.4154C163.933 29.8167 160.294 33.1277 154.403 33.1277C148.324 33.1277 145.098 29.4785 144.723 29.0266L146.523 25.7919C148.624 28.1244 151.514 29.5163 154.478 29.5163C158.267 29.5163 160.331 27.9737 160.331 25.5661C160.331 23.5343 158.043 22.2934 154.591 21.6916C147.574 20.4872 145.586 17.9666 145.586 14.581C145.586 10.4798 148.775 7.24512 154.666 7.24512C155.717 7.24512 159.693 7.35808 162.808 10.2546L161.082 13.5273C159.768 12.2483 157.743 10.8566 154.591 10.8566C151.139 10.8566 149.188 12.1734 149.188 14.431C149.188 16.3869 150.914 17.2897 154.891 18.0795C160.894 19.2462 163.933 21.165 163.933 25.4154ZM194.489 20.1862C194.489 26.987 189.258 32.5577 182.61 33.0834V29.46C187.296 28.9543 190.887 25.0293 190.887 20.1862C190.887 15.3435 187.296 11.4186 182.61 10.9132V7.28986C189.258 7.81521 194.489 13.3859 194.489 20.1862ZM180.555 7.28986V10.9132C175.869 11.4189 172.277 15.343 172.277 20.1862C172.277 25.0293 175.869 28.9543 180.555 29.46V33.0834C173.907 32.5579 168.675 26.9873 168.675 20.1862C168.675 13.3859 173.907 7.81521 180.555 7.28986ZM199.509 18.4325H212.115V21.9929H203.111V32.8274H199.509V18.4325ZM213.917 7.54613V11.1576H199.509V7.54613H213.917ZM224.637 32.827V13.1548H228.238V32.827H224.637ZM218.033 7.54613H234.842V11.0938H218.033V7.54613Z" fill="#646464"/>
<path d="M256.667 25.0014C256.667 28.5598 254.483 32.6508 248.699 33.0853V29.4571C251.489 29.1662 253.069 27.4007 253.069 25.3025C253.069 22.8614 251.318 22.0315 248.699 21.7873V17.8537C250.578 17.4885 252.469 16.584 252.469 14.4666C252.469 12.9623 251.277 11.2255 248.699 10.9185V7.28809C253.817 7.73688 256.068 11.515 256.068 14.1659C256.068 16.3479 255.168 18.2294 253.069 19.4709C254.943 20.1101 256.667 22.4054 256.667 25.0014ZM246.644 7.30429V10.9576C243.828 11.4328 243.068 13.5493 242.837 15.6705L239.239 15.0687C239.585 10.8943 242.529 7.75543 246.644 7.30429ZM246.644 29.4167V33.086C241.832 32.6914 238.991 29.505 238.676 25.0012L242.274 24.3994C242.572 26.8549 243.749 28.9537 246.644 29.4167ZM282.198 20.1876C282.198 27.1853 277.547 32.8278 269.33 32.8278H261.789V18.4337H265.397V29.2165H270.267C275.183 29.2165 278.598 25.191 278.598 20.1876C278.598 15.1841 275.183 11.1585 270.267 11.1585H261.789V7.5473H269.33C277.735 7.5473 282.2 13.1898 282.198 20.1876Z" fill="#646464"/>
<path d="M74.6484 7.5459H89.0563V11.1574H74.6484V7.5459ZM89.0574 29.2159V32.8272H74.6484V18.4331H87.2557V21.9934H78.259V29.2159H89.0574Z" fill="#646464"/>
<path d="M29.5762 24.6027C28.9232 18.394 25.7667 12.6065 20.8782 8.67782C20.8478 8.65228 20.817 8.62715 20.7859 8.60249L20.7401 8.56556C17.2242 5.78474 13.0572 4.08651 8.64844 3.63043C12.0088 1.2849 16.0705 0 20.1605 0C25.6761 0 30.8273 2.1984 34.6652 6.1902C34.7206 6.24575 34.7648 6.29271 34.8097 6.34039L34.8324 6.36452C37.0833 8.75813 38.729 11.6843 39.5963 14.8326C37.4132 19.0841 33.8669 22.5396 29.5762 24.6027Z" fill="#006299"/>
<path d="M14.4369 39.5941C5.90425 37.0588 0 29.181 0 20.2121C0 18.896 0.128414 17.5773 0.38173 16.2928C0.399473 16.1941 0.416922 16.107 0.435836 16.0214C1.19924 12.4122 2.94258 9.07787 5.47779 6.37696C5.52979 6.31971 5.58295 6.26364 5.63741 6.20875C5.97962 5.85284 6.33435 5.50926 6.70097 5.17871C11.1276 5.2787 15.3478 6.69817 18.9332 9.29099C14.1503 13.4657 11.2179 19.4529 10.8739 25.7684C10.8697 25.8369 10.8665 25.9054 10.8643 25.9739C10.8464 26.34 10.8375 26.7065 10.8376 27.0729C10.8376 31.485 12.0665 35.7894 14.3914 39.5207C14.4054 39.5438 14.4208 39.5685 14.4369 39.5941Z" fill="#1799D6"/>
<path d="M20.1583 40.4256C19.0442 40.4256 17.9319 40.3334 16.8328 40.1501C16.5523 39.7736 16.2841 39.3881 16.0287 38.9941L15.8938 38.7852C13.6838 35.2999 12.5104 31.2697 12.5 27.1285C14.9581 27.9809 17.5328 28.4129 20.1583 28.4129C23.2298 28.4129 26.2179 27.8252 29.0394 26.6664L29.0386 26.6668C29.0374 26.6668 29.189 26.6043 29.226 26.5882C33.6889 24.7144 37.5313 21.4301 40.1086 17.2998C40.2481 18.2643 40.3182 19.2375 40.3184 20.212C40.3184 29.3481 34.1712 37.3777 25.3694 39.7382C25.2777 39.7658 25.2067 39.7837 25.1345 39.8018C24.8242 39.881 24.5416 39.9464 24.2697 40.0019L24.0114 40.0543C22.7493 40.3006 21.4524 40.4256 20.1583 40.4256Z" fill="#98999A"/>
</svg>
